<svg width="215" height="608" viewBox="0 0 215 608" fill="none" xmlns="http://www.w3.org/2000/svg">
<path d="M109.843 243.986V121.603L0.5 61.4321V182.795L54.7123 213.133L109.843 243.986Z" fill="#39FF14"/>
<path d="M109.843 303.138V425.52L161.96 394.924L214.077 364.329V242.966L109.843 303.138Z" fill="#39FF14"/>
<path d="M109.843 607.054V484.671L0.5 424.5V545.862L109.843 607.054Z" fill="#39FF14"/>
<path d="M109.843 484.671V607.054M109.843 484.671L0.5 424.5M109.843 484.671L214.077 424.5M109.843 607.054L0.5 545.862V424.5M109.843 607.054L214.077 545.862V424.5M0.5 424.5L55.1715 394.414M214.077 424.5L161.96 394.924M109.843 303.138V425.52M109.843 303.138L0.5 242.966M109.843 303.138L214.077 242.966M109.843 425.52L0.5 364.329V242.966M109.843 425.52L161.96 394.924M0.5 242.966L54.7123 213.133M214.077 242.966V364.329L161.96 394.924M214.077 242.966L161.96 212.881M109.843 121.603V243.986M109.843 121.603L0.5 61.4321M109.843 121.603L214.077 61.4321M109.843 243.986L214.077 182.795V61.4321M109.843 243.986L54.7123 213.133M0.5 61.4321V182.795L54.7123 213.133M0.5 61.4321L109.843 1.26074L214.077 61.4321M55.1715 212.881L54.7123 213.133" stroke="white"/>
</svg>
