<svg width="422" height="492" viewBox="0 0 422 492" fill="none" xmlns="http://www.w3.org/2000/svg">
<path d="M212.533 367.618V245.235L103.19 185.064V306.426L212.533 367.618Z" fill="#39FF14"/>
<path d="M421 124.892L212.533 2L1 124.892L103.19 185.064L212.533 124.892L316.766 185.064L421 124.892Z" fill="#39FF14"/>
<path d="M1 124.892L212.533 2L421 124.892M1 124.892V368.637L212.533 490M1 124.892L103.19 185.064M212.533 245.235V367.618M212.533 245.235L103.19 185.064M212.533 245.235L316.766 185.064M421 124.892V368.637L212.533 490M421 124.892L316.766 185.064M212.533 490V367.618M212.533 367.618L103.19 306.426V185.064M212.533 367.618L316.766 306.426V185.064M103.19 185.064L212.533 124.892L316.766 185.064" stroke="white" stroke-width="2"/>
</svg>
